<svg width="2000" height="1974" viewBox="0 0 2000 1974" fill="none" xmlns="http://www.w3.org/2000/svg">
<rect width="2000" height="1974" fill="white"/>
<rect x="710" y="827" width="79.1557" height="83.3333" transform="rotate(90 710 827)" fill="#FFF600"/>
<rect x="710" y="937.422" width="189.578" height="83.3333" transform="rotate(90 710 937.422)" fill="#3F3F3F"/>
<rect x="601.667" y="827" width="79.1557" height="83.3333" transform="rotate(90 601.667 827)" fill="#FFF600"/>
<rect x="538" y="827" width="79" height="128" transform="rotate(90 538 827)" fill="#FFF600"/>
<rect x="493.333" y="937.422" width="79.1557" height="83.3333" transform="rotate(90 493.333 937.422)" fill="#FFF600"/>
<rect x="710" y="1047.84" width="79.1557" height="300" transform="rotate(90 710 1047.84)" fill="#3F3F3F"/>
<path d="M1103.8 846.2V1127H1035.4V958.6L972.6 1127H917.4L854.2 958.2V1127H785.8V846.2H866.6L945.4 1040.6L1023.4 846.2H1103.8ZM1254.59 1129.8C1234.05 1129.8 1215.65 1126.47 1199.39 1119.8C1183.12 1113.13 1170.05 1103.27 1160.19 1090.2C1150.59 1077.13 1145.52 1061.4 1144.99 1043H1217.79C1218.85 1053.4 1222.45 1061.4 1228.59 1067C1234.72 1072.33 1242.72 1075 1252.59 1075C1262.72 1075 1270.72 1072.73 1276.59 1068.2C1282.45 1063.4 1285.39 1056.87 1285.39 1048.6C1285.39 1041.67 1282.99 1035.93 1278.19 1031.4C1273.65 1026.87 1267.92 1023.13 1260.99 1020.2C1254.32 1017.27 1244.72 1013.93 1232.19 1010.2C1214.05 1004.6 1199.25 999 1187.79 993.4C1176.32 987.8 1166.45 979.533 1158.19 968.6C1149.92 957.667 1145.79 943.4 1145.79 925.8C1145.79 899.667 1155.25 879.267 1174.19 864.6C1193.12 849.667 1217.79 842.2 1248.19 842.2C1279.12 842.2 1304.05 849.667 1322.99 864.6C1341.92 879.267 1352.05 899.8 1353.39 926.2H1279.39C1278.85 917.133 1275.52 910.067 1269.39 905C1263.25 899.667 1255.39 897 1245.79 897C1237.52 897 1230.85 899.267 1225.79 903.8C1220.72 908.067 1218.19 914.333 1218.19 922.6C1218.19 931.667 1222.45 938.733 1230.99 943.8C1239.52 948.867 1252.85 954.333 1270.99 960.2C1289.12 966.333 1303.79 972.2 1314.99 977.8C1326.45 983.4 1336.32 991.533 1344.59 1002.2C1352.85 1012.87 1356.99 1026.6 1356.99 1043.4C1356.99 1059.4 1352.85 1073.93 1344.59 1087C1336.59 1100.07 1324.85 1110.47 1309.39 1118.2C1293.92 1125.93 1275.65 1129.8 1254.59 1129.8ZM1467.48 901V957.8H1559.08V1010.6H1467.48V1072.2H1571.08V1127H1399.08V846.2H1571.08V901H1467.48Z" fill="black"/>
</svg>
